PathFileType	4	(X/Y/Z)	/Users/itak/Documents/Research/Walk-IL/dataset/trc/00202_00008.trc
DataRate	CameraRate	NumFrames	NumMarkers	Units	OrigDataRate	OrigDataStartFrame	OrigNumFrames
100.000000	100.000000	4	53	mm	100.000000	435	498
Frame#	Time	RPSI			LPSI			L3			STRN			T10			C7			CLAV			RBAK			LBAK			LSHO			LUPA			LAEL			LAOL			LWTS			LWPS			LFRA			LIFD			LHPS			LHTS			RSHO			RUPA			RAEL			RAOL			RWTS			RWPS			RFRA			RIFD			RHTS			RHPS			RBHD			LFHD			RFHD			LBHD			LHIP			RHIP			RASI			LASI			LKNE			LTHI			LANK			LTIP			LTOE			LMT1			LMT5			LHEE			RKNE			RTHI			RANK			RTIP			RTOE			RMT1			RMT5			RHEE			
		X1	Y1	Z1	X2	Y2	Z2	X3	Y3	Z3	X4	Y4	Z4	X5	Y5	Z5	X6	Y6	Z6	X7	Y7	Z7	X8	Y8	Z8	X9	Y9	Z9	X10	Y10	Z10	X11	Y11	Z11	X12	Y12	Z12	X13	Y13	Z13	X14	Y14	Z14	X15	Y15	Z15	X16	Y16	Z16	X17	Y17	Z17	X18	Y18	Z18	X19	Y19	Z19	X20	Y20	Z20	X21	Y21	Z21	X22	Y22	Z22	X23	Y23	Z23	X24	Y24	Z24	X25	Y25	Z25	X26	Y26	Z26	X27	Y27	Z27	X28	Y28	Z28	X29	Y29	Z29	X30	Y30	Z30	X31	Y31	Z31	X32	Y32	Z32	X33	Y33	Z33	X34	Y34	Z34	X35	Y35	Z35	X36	Y36	Z36	X37	Y37	Z37	X38	Y38	Z38	X39	Y39	Z39	X40	Y40	Z40	X41	Y41	Z41	X42	Y42	Z42	X43	Y43	Z43	X44	Y44	Z44	X45	Y45	Z45	X46	Y46	Z46	X47	Y47	Z47	X48	Y48	Z48	X49	Y49	Z49	X50	Y50	Z50	X51	Y51	Z51	X52	Y52	Z52	X53	Y53	Z53	

436	4.350000000000001	395.7259521484375	1065.478759765625	716.1148071289062	520.2116088867188	1060.915893554688	723.1641235351562	456.6372375488281	1098.6630859375	720.2570190429688	465.4749755859375	1314.809204101562	975.4337158203125	469.1140441894531	1252.63427734375	677.2930908203125	486.9767150878906	1521.767822265625	736.7290649414062	479.4789123535156	1426.879272460938	943.250244140625	373.3344116210938	1350.25732421875	672.331787109375	588.1002197265625	1495.564697265625	731.4239501953125	664.1730346679688	1484.994262695312	810.479736328125	737.2822875976562	1351.254516601562	790.1143798828125	757.0208129882812	1135.511962890625	831.9451904296875	686.5003662109375	1112.17919921875	782.2818603515625	713.3704223632812	937.0797729492188	991.385986328125	756.294677734375	894.8523559570312	919.8033447265625	767.001953125	1028.97216796875	870.1004638671875	685.2006225585938	766.3788452148438	1052.353271484375	750.2445678710938	834.0574340820312	958.9884033203125	732.096435546875	864.8189697265625	1022.824951171875	305.2372741699219	1508.931030273438	800.4044189453125	234.1859283447266	1443.372802734375	783.445556640625	173.6272735595703	1154.076904296875	783.394775390625	270.8294067382812	1144.737670898438	777.0307006835938	198.6320953369141	943.89453125	946.9293823242188	147.6029357910156	917.8580932617188	876.6860961914062	155.2454071044922	1083.412475585938	815.3978881835938	225.1417236328125	756.8336791992188	981.6437377929688	193.1392669677734	853.6707153320312	983.2801513671875	153.2135772705078	838.4882202148438	915.5888061523438	398.3982543945312	1690.707275390625	827.6741943359375	588.859619140625	1733.111328125	925.0674438476562	472.2916870117188	1736.409790039062	980.8609008789062	519.72607421875	1694.929565429688	763.484130859375	632.6465454101562	997.5127563476562	834.8772583007812	262.60009765625	1029.115478515625	866.1015625	316.1565856933594	1058.403076171875	949.7396850585938	573.6594848632812	1038.796020507812	957.2499389648438	576.285888671875	503.6752014160156	849.8453369140625	609.2291870117188	642.98779296875	857.4559326171875	558.4681396484375	39.97440719604492	796.6320190429688	580.851318359375	279.2433471679688	826.1473999023438	520.501953125	43.40490341186523	1015.482360839844	477.530029296875	49.94514465332031	962.913330078125	592.2477416992188	33.4406852722168	905.667236328125	492.4776306152344	42.85034561157227	742.8169555664062	278.3232421875	523.874755859375	899.2495727539062	244.3849029541016	795.2898559570312	924.0247192382812	270.2962951660156	38.52977752685547	814.1739501953125	293.64794921875	403.5696105957031	908.910888671875	309.3073425292969	46.24566650390625	1036.961059570312	353.343505859375	46.01004028320312	981.2246704101562	237.3934631347656	39.30956268310547	927.3027954101562	336.8185729980469	35.70926666259766	761.9586791992188	
437	4.36	395.6566772460938	1065.454223632812	718.2784423828125	520.118896484375	1060.888305664062	725.3795776367188	456.4696044921875	1098.520874023438	722.3948364257812	465.0864562988281	1314.741088867188	977.386962890625	468.691162109375	1252.337036132812	679.3101806640625	486.6188049316406	1521.52099609375	738.49072265625	479.1425476074219	1426.748657226562	945.032958984375	372.8995971679688	1349.978393554688	674.3004150390625	587.730712890625	1495.293090820312	733.1138305664062	663.8975830078125	1484.536987304688	812.1112670898438	736.562744140625	1350.50634765625	791.46630859375	755.1008911132812	1134.503662109375	832.4483642578125	684.356201171875	1111.908325195312	782.7750854492188	711.4812622070312	933.4154663085938	988.67041015625	754.314453125	892.5645141601562	916.256591796875	764.9959106445312	1027.535278320312	869.012939453125	683.2525634765625	761.4509887695312	1046.232666015625	748.276123046875	831.0186767578125	954.2371826171875	730.1762084960938	860.4812622070312	1018.686950683594	304.9051513671875	1508.861694335938	802.19482421875	233.7307434082031	1443.381225585938	785.3458862304688	172.6937103271484	1154.313598632812	785.50146484375	269.8818054199219	1144.666748046875	779.11328125	196.5153198242188	943.1415405273438	947.8043212890625	145.4113616943359	917.84814453125	877.316162109375	153.9358825683594	1083.731201171875	817.1494750976562	222.0146179199219	755.6390380859375	981.1522827148438	190.4739837646484	852.6256103515625	983.4730224609375	150.4411010742188	838.2215576171875	915.5755615234375	398.1132507324219	1690.5771484375	829.5250854492188	588.7166137695312	1732.99169921875	926.53857421875	472.2669677734375	1736.284790039062	982.5782470703125	519.2672729492188	1694.838745117188	765.0889282226562	632.4623413085938	997.4669799804688	837.0943603515625	262.0898132324219	1029.272216796875	868.1244506835938	315.7141418457031	1058.202880859375	951.7635498046875	573.1448364257812	1038.43310546875	959.4675903320312	576.0012817382812	503.5385437011719	850.7877197265625	608.9153442382812	642.8524780273438	858.9385986328125	558.3499145507812	40.06008529663086	796.6612548828125	580.6559448242188	279.2495727539062	826.5606079101562	520.46875	43.37400436401367	1015.560668945312	477.5028076171875	49.89061737060547	962.9489135742188	592.20703125	33.49627685546875	905.6737060546875	492.33447265625	42.869873046875	742.8463745117188	278.0592651367188	523.6508178710938	898.1029052734375	244.381103515625	794.8925170898438	924.5704345703125	270.5588073730469	38.74821853637695	814.2113647460938	293.5563049316406	403.6903381347656	907.868408203125	309.4374389648438	45.64440155029297	1037.279907226562	353.5404052734375	45.69343948364258	981.47705078125	237.4585876464844	39.42599868774414	927.3673706054688	337.0938110351562	35.74053955078125	762.0126342773438	
438	4.37	395.5579528808594	1065.43603515625	720.3440551757812	519.9956665039062	1060.866088867188	727.5170288085938	456.2828674316406	1098.387817382812	724.4592895507812	464.6546936035156	1314.665283203125	979.300537109375	468.2949523925781	1252.06103515625	681.2742309570312	486.2647399902344	1521.2900390625	740.2462768554688	478.7583312988281	1426.61474609375	946.781494140625	372.488037109375	1349.710571289062	676.1992797851562	587.3611450195312	1495.048950195312	734.8075561523438	663.6055908203125	1484.092651367188	813.7741088867188	735.8361206054688	1349.779663085938	792.8413696289062	753.1421508789062	1133.50830078125	832.8521118164062	682.1525268554688	1111.677368164062	783.190185546875	709.6378173828125	929.7307739257812	985.7017211914062	752.3076171875	890.3184814453125	912.431396484375	762.9569702148438	1026.121948242188	867.7481079101562	681.3927612304688	756.542236328125	1039.749389648438	746.30859375	828.0204467773438	949.1558837890625	728.313232421875	856.1355590820312	1014.223327636719	304.554931640625	1508.784912109375	803.9113159179688	233.2705230712891	1443.371704101562	787.1616821289062	171.7292327880859	1154.555053710938	787.5927124023438	268.9022827148438	1144.589965820312	781.160888671875	194.3519287109375	942.40234375	948.6586303710938	143.1506805419922	917.8770751953125	877.9402465820312	152.5948486328125	1084.069946289062	818.8933715820312	218.7759094238281	754.4602661132812	980.5948486328125	187.7479400634766	851.599609375	983.6407470703125	147.6103363037109	837.9949951171875	915.5643920898438	397.7846069335938	1690.44873046875	831.3089599609375	588.5185546875	1732.885986328125	927.990478515625	472.1742248535156	1736.189208984375	984.2465209960938	518.78857421875	1694.745361328125	766.659423828125	632.2553100585938	997.431884765625	839.1590576171875	261.5802307128906	1029.413330078125	870.0706787109375	315.2715454101562	1057.990234375	953.710205078125	572.6463012695312	1038.086303710938	961.5980834960938	575.7036743164062	503.4039306640625	851.7305908203125	608.5946044921875	642.72509765625	860.3496704101562	558.2249145507812	40.15025329589844	796.695068359375	580.4359741210938	279.2621765136719	826.9959716796875	520.4329223632812	43.34407043457031	1015.648864746094	477.4717712402344	49.83160400390625	962.991455078125	592.1591796875	33.56043243408203	905.6831665039062	492.1863098144531	42.89493942260742	742.8801879882812	277.7119750976562	523.4464111328125	897.0411987304688	244.3664093017578	794.5331420898438	925.107177734375	270.7202453613281	38.87303161621094	814.2388916015625	293.3328247070312	403.8264770507812	906.8585815429688	309.5067443847656	45.28675842285156	1037.470703125	353.653564453125	45.52264785766602	981.640625	237.4656219482422	39.46879577636719	927.4132080078125	337.265869140625	35.76715469360352	762.0557250976562	
439	4.38	395.42236328125	1065.421630859375	722.3143920898438	519.8351440429688	1060.84228515625	729.5740356445312	456.07080078125	1098.260620117188	726.4522705078125	464.1878967285156	1314.5771484375	981.1714477539062	467.9215698242188	1251.80419921875	683.1839599609375	485.9142150878906	1521.072143554688	741.9940185546875	478.3317260742188	1426.473754882812	948.4949340820312	372.1000671386719	1349.4521484375	678.0277709960938	586.9920043945312	1494.828979492188	736.5018920898438	663.2994384765625	1483.66064453125	815.4645385742188	735.109375	1349.078002929688	794.2395629882812	751.161865234375	1132.530639648438	833.1700439453125	679.9150390625	1111.487426757812	783.5342407226562	707.83544921875	926.0491943359375	982.5007934570312	750.2836303710938	888.1328735351562	908.3617553710938	760.8982543945312	1024.742553710938	866.3281860351562	679.5880126953125	751.6832885742188	1032.932006835938	744.3419799804688	825.08642578125	943.7813720703125	726.49365234375	851.8096923828125	1009.462829589844	304.18798828125	1508.693359375	805.5576171875	232.8071594238281	1443.340576171875	788.8927001953125	170.7377319335938	1154.794189453125	789.6465454101562	267.8968505859375	1144.501098632812	783.1609497070312	192.1488037109375	941.6832885742188	949.4911499023438	140.8383483886719	917.939697265625	878.56103515625	151.2334442138672	1084.417602539062	820.6155395507812	215.4418792724609	753.312744140625	980.005126953125	184.9732513427734	850.6069946289062	983.7978515625	144.7398071289062	837.8056640625	915.5712280273438	397.4114685058594	1690.322631835938	833.02685546875	588.2691650390625	1732.788818359375	929.431884765625	472.0142822265625	1736.117431640625	985.87060546875	518.2948608398438	1694.645874023438	768.2002563476562	632.024169921875	997.4111938476562	841.0790405273438	261.0767211914062	1029.535766601562	871.9474487304688	314.8323364257812	1057.767700195312	955.5864868164062	572.1685791015625	1037.765502929688	963.643798828125	575.3936767578125	503.2674255371094	852.6732788085938	608.2777709960938	642.6076049804688	861.6921997070312	558.0947875976562	40.24342727661133	796.7322998046875	580.1935424804688	279.27978515625	827.4541015625	520.3947143554688	43.31479644775391	1015.743713378906	477.4364624023438	49.76840972900391	963.0397338867188	592.1039428710938	33.63342666625977	905.6959838867188	492.0349731445312	42.92496109008789	742.9153442382812	277.2858276367188	523.2557983398438	896.0599975585938	244.3072662353516	794.2100830078125	925.6508178710938	270.7922973632812	38.91864395141602	814.255859375	292.9954833984375	403.9698181152344	905.8802490234375	309.5176391601562	45.1141357421875	1037.562866210938	353.6868896484375	45.46931457519531	981.73095703125	237.4170532226562	39.44350433349609	927.439697265625	337.3489074707031	35.78933715820312	762.0878295898438	
